<?xml version="1.0" encoding="UTF-8"?>
<svg version="1.1" xmlns="http://www.w3.org/2000/svg" width="1254" height="1254">
<path d="M0,0 L68,0 L97,2 L149,9 L170,13 L194,20 L209,24 L221,28 L230,32 L251,42 L267,52 L279,62 L287,72 L293,84 L296,94 L303,133 L308,158 L311,173 L314,185 L317,204 L322,226 L325,242 L329,263 L333,286 L338,311 L342,335 L346,354 L350,378 L354,397 L357,415 L358,426 L358,462 L355,479 L350,498 L341,519 L331,537 L321,550 L310,562 L298,574 L279,588 L264,597 L241,609 L215,619 L191,627 L167,633 L140,638 L116,642 L105,643 L102,644 L73,646 L-8,646 L-30,645 L-65,641 L-77,639 L-79,638 L-100,635 L-136,625 L-163,616 L-171,612 L-184,607 L-206,595 L-224,583 L-240,570 L-257,553 L-269,537 L-280,518 L-284,510 L-290,494 L-294,480 L-297,459 L-297,420 L-293,400 L-290,383 L-287,367 L-283,346 L-280,329 L-277,311 L-272,286 L-269,270 L-267,257 L-264,244 L-261,226 L-257,205 L-252,184 L-251,175 L-248,163 L-239,117 L-237,103 L-234,90 L-230,79 L-223,69 L-214,59 L-198,47 L-182,38 L-170,32 L-153,26 L-136,20 L-120,16 L-107,13 L-93,10 L-53,4 L-29,2 L-25,1 Z " fill="#353535" transform="translate(597,294)"/>
<path d="M0,0 L5,2 L21,12 L34,19 L43,28 L48,37 L50,44 L51,132 L55,144 L61,154 L70,161 L76,164 L85,166 L98,166 L111,161 L120,154 L127,144 L130,133 L131,97 L134,88 L143,78 L150,73 L157,71 L172,71 L184,77 L191,84 L196,93 L197,97 L198,176 L202,188 L208,197 L216,204 L221,207 L231,210 L246,210 L259,205 L268,198 L274,190 L278,181 L279,176 L280,97 L285,85 L294,76 L299,73 L306,71 L320,71 L328,74 L336,80 L342,87 L346,97 L347,133 L350,143 L356,153 L364,160 L372,164 L382,166 L393,166 L405,162 L413,156 L420,148 L424,140 L425,136 L426,47 L429,37 L435,27 L439,22 L449,15 L466,6 L475,0 L477,0 L481,23 L486,48 L489,65 L493,89 L496,102 L497,111 L499,121 L503,141 L506,158 L509,177 L513,197 L517,223 L520,236 L520,264 L513,294 L506,309 L497,324 L486,337 L476,347 L458,360 L441,370 L422,379 L392,390 L355,399 L328,404 L301,407 L287,408 L282,409 L257,410 L220,410 L192,409 L177,407 L160,406 L147,404 L116,398 L85,390 L59,381 L32,368 L16,358 L3,348 L-9,337 L-19,325 L-27,312 L-35,295 L-41,276 L-43,260 L-43,236 L-41,225 L-39,217 L-37,202 L-36,200 L-34,188 L-29,157 L-26,145 L-21,115 L-18,97 L-17,95 L-16,86 L-14,79 L-10,54 L-6,35 L-5,26 L-4,24 L-2,12 Z " fill="#FDFDFD" transform="translate(389,482)"/>
<path d="M0,0 L4,2 L-6,6 L-10,5 Z " fill="#444444" transform="translate(421,329)"/>
<path d="M0,0 L17,2 L13,5 L9,4 L9,2 L7,4 L3,3 L3,1 Z " fill="#595959" transform="translate(729,301)"/>
<path d="M0,0 L7,0 L7,1 L2,1 L2,3 L-14,2 L-14,1 Z " fill="#6B6B6B" transform="translate(690,888)"/>
<path d="M0,0 L13,0 L13,1 L3,3 L-4,2 Z " fill="#646464" transform="translate(572,295)"/>
<path d="M0,0 L4,1 L-3,6 L-7,10 L-6,6 Z " fill="#454646" transform="translate(383,353)"/>
<path d="M0,0 L1,4 L-1,15 L-2,15 L-3,7 L-1,7 L-2,2 L0,2 Z " fill="#676767" transform="translate(357,655)"/>
<path d="M0,0 L1,4 L-1,9 L-3,9 L-2,2 Z " fill="#474747" transform="translate(349,465)"/>
<path d="M0,0 L8,0 L11,3 L4,3 Z " fill="#3B3B3A" transform="translate(585,295)"/>
<path d="M0,0 L3,3 L2,7 L-1,9 Z " fill="#DEDDDE" transform="translate(953,764)"/>
<path d="M0,0 L13,1 L13,2 L3,3 L3,1 Z " fill="#616161" transform="translate(687,296)"/>
<path d="M0,0 L5,0 L4,3 L-5,3 L-1,1 Z " fill="#EEEEEE" transform="translate(605,291)"/>
<path d="M0,0 L2,1 L1,8 L-2,9 Z " fill="#E8E8E8" transform="translate(949,782)"/>
<path d="M0,0 L7,3 L7,5 L-3,2 Z " fill="#474747" transform="translate(712,552)"/>
</svg>
